<svg xmlns="http://www.w3.org/2000/svg" xmlns:xlink="http://www.w3.org/1999/xlink" viewBox="0 0 512 512"><defs><style>.a{fill:url(#a);}</style><linearGradient id="a" x1="91.42" y1="52.64" x2="422.14" y2="383.37" gradientUnits="userSpaceOnUse"><stop offset="0" stop-color="#00e998"/><stop offset="0.2" stop-color="#00dea2"/><stop offset="0.53" stop-color="#00c2bc"/><stop offset="0.98" stop-color="#0094e6"/><stop offset="1" stop-color="#0091e9"/></linearGradient></defs><path class="a" d="M213.74,89.25l-32.53,99.42H156.5l-21.87-67.32-22.58,67.32H87.47L54.81,89.25H78.67l22.44,69.88,23.43-69.88h21.31l22.72,70.45,23.15-70.45Zm-.14,61.22c0-23,17.76-39.34,42-39.34s41.9,16.33,41.9,39.34-17.61,39.34-41.9,39.34S213.6,173.48,213.6,150.47Zm61.5,0c0-13.21-8.38-21.16-19.46-21.16S236,137.26,236,150.47s8.53,21.16,19.6,21.16S275.1,163.68,275.1,150.47Zm84.65-39.34v20.45c-1.84-.14-3.26-.29-5-.29-12.21,0-20.31,6.68-20.31,21.31v36.07H312.32V112.26h21.16v10.09C338.88,115,348,111.13,359.75,111.13Zm90.34-27.84V188.67H428.93v-8.8c-5.54,6.67-13.64,9.94-23.86,9.94-21.59,0-38.21-15.34-38.21-39.34s16.62-39.34,38.21-39.34c9.37,0,17.32,3,22.86,9.23V83.29Zm-21.73,67.18c0-13.21-8.52-21.16-19.46-21.16s-19.6,7.95-19.6,21.16,8.52,21.16,19.6,21.16S428.36,163.68,428.36,150.47ZM160.63,248.61h40.19v17.76H160.63ZM214,259.27c0-23,17.75-39.35,42-39.35S298,236.26,298,259.27s-17.61,39.34-41.9,39.34S214,282.28,214,259.27Zm61.5,0c0-13.21-8.38-21.17-19.46-21.17s-19.6,8-19.6,21.17,8.52,21.16,19.6,21.16S275.53,272.48,275.53,259.27Zm35.79-10.66h40.2v17.76h-40.2Zm-65.2,113.92v43.74H224V365.93c0-12.35-5.54-18-14.49-18-9.94,0-16.9,6.39-16.9,20v38.35H170.42V365.93c0-12.35-5.25-18-14.48-18-9.8,0-16.76,6.39-16.76,20v38.35H117V329.86h21.16v8.81c5.68-6.54,14.21-9.95,24-9.95,10.65,0,19.74,4.12,25.13,12.5,6.11-7.81,16.05-12.5,27.56-12.5C233.06,328.72,246.12,339.23,246.12,362.53Zm87.5.14v43.6H312.88v-9.52c-4.12,7-12.07,10.66-23.29,10.66-17.9,0-28.55-10-28.55-23.15,0-13.5,9.52-22.87,32.81-22.87h17.61c0-9.52-5.68-15.06-17.61-15.06-8.09,0-16.47,2.7-22,7.11l-8-15.48c8.38-6,20.74-9.24,32.95-9.24C320.13,328.72,333.62,339.52,333.62,362.67Zm-22.16,19.46v-7.82H296.27c-10.37,0-13.64,3.84-13.64,8.95,0,5.54,4.69,9.23,12.5,9.23C302.51,392.49,308.91,389.08,311.46,382.13Zm91.47,20.45c-4.54,3.26-11.22,4.83-18,4.83-18,0-28.54-9.24-28.54-27.41V348.61H344.56V331.56h11.79V313H378.5v18.6h19v17.05h-19v31.1c0,6.53,3.55,10.08,9.52,10.08a14.94,14.94,0,0,0,9-2.84Z"/></svg>